HIERARCHY
ROOT joint_Root
{
	OFFSET 0.0 0.0 0.0
	CHANNELS 6 Xposition Yposition Zposition Zrotation Xrotation Yrotation 
	JOINT Hips
	{
		OFFSET -17.1583 93.1646 452.98
		CHANNELS 6 Xposition Yposition Zposition Zrotation Xrotation Yrotation 
		JOINT Spine
		{
			OFFSET 15.7357 0.0 0.0
			CHANNELS 6 Xposition Yposition Zposition Zrotation Xrotation Yrotation 
			JOINT Chest
			{
				OFFSET 8.98455 -0.406207 0.0
				CHANNELS 6 Xposition Yposition Zposition Zrotation Xrotation Yrotation 
				JOINT Neck
				{
					OFFSET 16.3773 0.0 0.0
					CHANNELS 6 Xposition Yposition Zposition Zrotation Xrotation Yrotation 
					JOINT Head
					{
						OFFSET 6.45672 0.0 0.0
						CHANNELS 6 Xposition Yposition Zposition Zrotation Xrotation Yrotation 
						End Site
						{
							OFFSET 0.0 0.0 0.0
						}
					}
				}
				JOINT Shoulder_L
				{
					OFFSET 12.9942 -0.242716 4.98039
					CHANNELS 6 Xposition Yposition Zposition Zrotation Xrotation Yrotation 
					JOINT UpperArm_L
					{
						OFFSET 5.34809 0.0 0.0
						CHANNELS 6 Xposition Yposition Zposition Zrotation Xrotation Yrotation 
						JOINT LowerArm_L
						{
							OFFSET 24.3286 1.87007e-05 0.0
							CHANNELS 6 Xposition Yposition Zposition Zrotation Xrotation Yrotation 
							JOINT Hand_L
							{
								OFFSET 22.2916 0.0 0.0
								CHANNELS 6 Xposition Yposition Zposition Zrotation Xrotation Yrotation 
								End Site
								{
									OFFSET 0.0 0.0 0.0
								}
							}
						}
					}
				}
				JOINT Shoulder_R
				{
					OFFSET 12.9945 -0.242716 -4.98039
					CHANNELS 6 Xposition Yposition Zposition Zrotation Xrotation Yrotation 
					JOINT UpperArm_R
					{
						OFFSET -5.34813 0.0 0.0
						CHANNELS 6 Xposition Yposition Zposition Zrotation Xrotation Yrotation 
						JOINT LowerArm_R
						{
							OFFSET -24.3289 0.000322201 0.0
							CHANNELS 6 Xposition Yposition Zposition Zrotation Xrotation Yrotation 
							JOINT Hand_R
							{
								OFFSET -22.2915 -0.000108084 0.0
								CHANNELS 6 Xposition Yposition Zposition Zrotation Xrotation Yrotation 
								End Site
								{
									OFFSET 0.0 0.0 0.0
								}
							}
						}
					}
				}
			}
		}
		JOINT UpperLeg_L
		{
			OFFSET -2.19248 -6.46944 0.0
			CHANNELS 6 Xposition Yposition Zposition Zrotation Xrotation Yrotation 
			JOINT LowerLeg_L
			{
				OFFSET 39.0811 0.0 -1.23785e-05
				CHANNELS 6 Xposition Yposition Zposition Zrotation Xrotation Yrotation 
				JOINT Foot_L
				{
					OFFSET 40.9854 0.0 -1.26872e-05
					CHANNELS 6 Xposition Yposition Zposition Zrotation Xrotation Yrotation 
					JOINT Toes_L
					{
						OFFSET 11.7543 0.0 0.0
						CHANNELS 6 Xposition Yposition Zposition Zrotation Xrotation Yrotation 
						End Site
						{
							OFFSET 0.0 0.0 0.0
						}
					}
				}
			}
		}
		JOINT UpperLeg_R
		{
			OFFSET -2.19251 6.46944 0.0
			CHANNELS 6 Xposition Yposition Zposition Zrotation Xrotation Yrotation 
			JOINT LowerLeg_R
			{
				OFFSET -39.0811 -0.00228153 -0.0401928
				CHANNELS 6 Xposition Yposition Zposition Zrotation Xrotation Yrotation 
				JOINT Foot_R
				{
					OFFSET -40.9854 0.0 0.0
					CHANNELS 6 Xposition Yposition Zposition Zrotation Xrotation Yrotation 
					JOINT Toes_R
					{
						OFFSET -11.7543 0.0 0.0
						CHANNELS 6 Xposition Yposition Zposition Zrotation Xrotation Yrotation 
						End Site
						{
							OFFSET 0.0 0.0 0.0
						}
					}
				}
			}
		}
	}
}
MOTION
Frames:	4
Frame Time:	0.0333333
0.000000 0.000000 0.000000 0.000000 0.000000 -0.000000 192.510000 89.444000 -149.592000 84.831000 2.300190 3.000560 15.735700 0.000005 -0.000001 89.714700 86.557500 -86.924000 8.984550 -0.406207 -0.000000 -0.869104 -0.244400 5.576970 16.377300 -0.000001 -0.000001 3.468420 1.989000 -2.464780 6.456720 -0.000001 -0.000000 13.440100 2.605780 -3.245700 12.994200 -0.242716 4.980390 -93.051000 9.021800 -71.226400 5.348090 -0.000007 -0.000001 -66.401800 -9.423030 5.618970 24.328600 0.000019 0.000005 2.139410 35.917700 -3.646730 22.291600 -0.000001 0.000005 -18.339000 5.088820 5.396100 12.994500 -0.242716 -4.980390 88.355500 4.788190 -71.020300 -5.348130 -0.000001 -0.000004 -68.261000 22.338500 -6.837560 -24.328900 0.000322 -0.000009 1.514850 5.495690 -15.443000 -22.291500 -0.000108 -0.000004 1.799140 5.230240 1.948770 -2.192480 -6.469440 -0.000000 -169.203000 3.360820 -12.692700 39.081100 -0.000007 -0.000012 0.301081 -0.128664 66.860400 40.985400 -0.000006 -0.000013 -13.890700 13.980200 -31.589000 11.754300 -0.000000 0.000003 0.001428 0.029094 -15.396600 -2.192510 6.469440 -0.000001 -171.861000 0.540570 169.691000 -39.081100 -0.002282 -0.040193 -0.016515 0.023544 40.053800 -40.985400 0.000008 0.000006 -5.030080 -2.327090 -80.139400 -11.754300 -0.000006 -0.000006 -0.003791 0.216912 -7.770470
0.000000 0.000000 0.000000 0.000000 0.000000 -0.000000 192.806000 91.023700 -146.741000 86.520500 1.459790 3.263760 15.735700 0.000005 -0.000001 103.337000 86.273300 -101.346000 8.984550 -0.406207 -0.000000 -0.537711 1.574790 3.987170 16.377300 -0.000001 -0.000001 4.356970 1.730720 -1.690740 6.456720 -0.000001 -0.000000 13.779500 1.775130 -2.214440 12.994200 -0.242716 4.980390 -93.014300 8.321620 -70.005800 5.348090 -0.000007 -0.000001 -62.772100 -11.589100 8.341580 24.328600 0.000019 0.000005 2.613640 26.912900 -5.764400 22.291600 -0.000001 0.000005 -12.737200 5.140450 4.184710 12.994500 -0.242716 -4.980390 88.714900 3.818240 -71.384500 -5.348130 -0.000001 -0.000004 -67.550100 24.744100 -11.578000 -24.328900 0.000322 -0.000009 1.947950 5.957950 -18.150400 -22.291500 -0.000108 -0.000004 2.897930 5.229780 1.960760 -2.192480 -6.469440 -0.000000 -171.733000 3.128780 -16.764600 39.081100 -0.000007 -0.000012 0.269733 -0.119173 66.162400 40.985400 -0.000006 -0.000013 -13.258600 13.507600 -39.444300 11.754300 -0.000000 0.000003 0.001654 0.035290 -15.145200 -2.192510 6.469440 -0.000001 -174.147000 1.096180 174.504000 -39.081100 -0.002282 -0.040193 -0.023425 0.038569 34.709700 -40.985400 0.000008 0.000006 -5.359030 -0.744496 -76.693700 -11.754300 -0.000006 -0.000006 -0.000999 0.183061 -9.147470
0.000000 0.000000 0.000000 0.000000 0.000000 -0.000000 193.118000 92.567100 -144.106000 88.089500 0.156617 2.988000 15.735700 0.000005 -0.000001 115.488000 85.973900 -114.269000 8.984550 -0.406207 -0.000000 -0.531659 3.376010 2.452520 16.377300 -0.000001 -0.000001 4.983300 1.559280 -1.086930 6.456720 -0.000001 -0.000000 14.079000 0.951995 -1.238540 12.994200 -0.242716 4.980390 -92.750100 7.183330 -68.985200 5.348090 -0.000007 -0.000001 -59.373300 -14.644200 10.584200 24.328600 0.000019 0.000005 2.596550 18.873700 -7.986740 22.291600 -0.000001 0.000005 -6.656630 5.116770 4.702810 12.994500 -0.242716 -4.980390 89.089400 2.773240 -71.815400 -5.348130 -0.000001 -0.000004 -66.727100 25.183000 -15.593200 -24.328900 0.000322 -0.000009 1.936960 4.853310 -21.814500 -22.291500 -0.000108 -0.000004 3.153180 5.239820 1.700020 -2.192480 -6.469440 -0.000000 -173.981000 2.726670 -19.878000 39.081100 -0.000007 -0.000012 0.209948 -0.113873 61.524200 40.985400 -0.000006 -0.000013 -12.214400 13.574800 -46.852900 11.754300 -0.000000 0.000003 0.001992 0.046392 -14.695000 -2.192510 6.469440 -0.000001 -176.317000 1.443840 178.324000 -39.081100 -0.002282 -0.040193 -0.018761 0.039056 29.464000 -40.985400 0.000008 0.000006 -5.484650 0.487921 -72.318100 -11.754300 -0.000006 -0.000006 0.001055 0.147471 -10.592700
0.000000 0.000000 0.000000 0.000000 0.000000 -0.000000 193.403000 93.796700 -141.656000 89.354600 -0.943630 2.118160 15.735700 0.000005 -0.000001 124.441000 85.749400 -123.833000 8.984550 -0.406207 -0.000000 -0.779493 4.761650 1.248450 16.377300 -0.000001 -0.000001 5.117720 1.389680 -0.787541 6.456720 -0.000001 -0.000000 13.991700 0.186293 -0.678147 12.994200 -0.242716 4.980390 -92.448000 6.166530 -68.297400 5.348090 -0.000007 -0.000001 -56.211300 -17.838200 12.378400 24.328600 0.000019 0.000005 2.549990 14.017300 -10.423300 22.291600 -0.000001 0.000005 -1.090220 5.032440 6.591790 12.994500 -0.242716 -4.980390 89.373900 1.958250 -72.266800 -5.348130 -0.000001 -0.000004 -65.402600 24.412500 -19.055200 -24.328900 0.000322 -0.000009 1.553390 3.113100 -26.564600 -22.291500 -0.000108 -0.000004 3.066040 5.254060 1.325630 -2.192480 -6.469440 -0.000000 -175.589000 2.591240 -22.257400 39.081100 -0.000007 -0.000012 0.140425 -0.105727 53.022600 40.985400 -0.000006 -0.000013 -10.780100 14.030300 -50.927500 11.754300 -0.000000 0.000003 0.001897 0.042973 -14.833600 -2.192510 6.469440 -0.000001 -178.355000 2.821290 -178.964000 -39.081100 -0.002282 -0.040193 -0.008310 0.025167 24.788100 -40.985400 0.000008 0.000006 -5.445570 2.455230 -68.055900 -11.754300 -0.000006 -0.000006 0.002235 0.110605 -12.088000
